<svg xmlns="http://www.w3.org/2000/svg" viewBox="0 0 100 100" width="100%" height="100%">
  <g id="kids-dino" transform="translate(0, 4)">
    <!-- BACK BACKGROUND LEG (Front-right) -->
    <polygon points="28,58 33,58 31,70 26,69" fill="#231710" />
    <polygon points="26,69 31,70 29,74 24,73" fill="#170f0a" />

    <!-- BACK BACKGROUND LEG (Back-right) -->
    <polygon points="61,62 66,60 64,72 59,71" fill="#231710" />
    <polygon points="59,71 64,72 62,76 57,75" fill="#170f0a" />

    <!-- UNDERBELLY / THROAT SECTIONS -->
    <polygon points="25,52 33,53 28,58 18,54" fill="#463022" />
    <polygon points="33,53 42,58 38,68 28,58" fill="#573c2a" />
    <polygon points="42,58 55,60 50,70 38,68" fill="#4b3323" />

    <!-- DINO MAIN BODY SECTIONS -->
    <!-- Upper Row (Back) -->
    <polygon points="28,38 42,34 45,46 35,45" fill="#78604f" />
    <polygon points="42,34 56,35 58,48 45,46" fill="#8f735f" />
    <polygon points="56,35 68,39 66,52 58,48" fill="#a68670" />
    <!-- Mid Row -->
    <polygon points="35,45 45,46 42,58 33,53" fill="#614d3f" />
    <polygon points="45,46 58,48 55,60 42,58" fill="#78604f" />
    <polygon points="58,48 66,52 63,62 55,60" fill="#8f735f" />
    <!-- Lower Row -->
    <polygon points="55,60 63,62 60,70 50,70" fill="#614d3f" />

    <!-- HEAD & NECK -->
    <polygon points="14,48 20,42 25,45 14,48" fill="#8f735f" />
    <polygon points="14,48 25,45 25,52 18,54" fill="#78604f" />
    <polygon points="20,42 28,38 35,45 25,45" fill="#a68670" />
    <polygon points="25,45 35,45 33,53 25,52" fill="#8f735f" />

    <!-- SEGMENTED TAIL -->
    <polygon points="68,39 78,46 74,58 66,52" fill="#8f735f" />
    <polygon points="78,46 85,50 81,58 74,58" fill="#78604f" />
    <polygon points="85,50 92,52 88,56 81,58" fill="#614d3f" />

    <!-- TAIL THAGOMIZER (Spikes) -->
    <polygon points="85,50 93,40 88,52" fill="#8a4f12" />
    <polygon points="92,52 98,50 88,56" fill="#b45d24" />

    <!-- SPINE PLATES (Stegosaurus Plates) -->
    <polygon points="25,45 24,34 28,38" fill="#8a4f12" />
    <polygon points="28,38 33,25 38,35" fill="#b45d24" />
    <polygon points="38,35 45,20 48,34" fill="#8a4f12" />
    <polygon points="48,34 56,22 62,37" fill="#b45d24" />
    <polygon points="62,37 68,26 72,41" fill="#8a4f12" />
    <polygon points="72,41 77,34 78,46" fill="#b45d24" />

    <!-- FRONT FORELEG (Front-left) -->
    <polygon points="33,58 40,59 38,68 32,66" fill="#4a382c" />
    <polygon points="32,66 38,68 36,78 30,77" fill="#3d2b20" />
    <polygon points="30,77 36,78 38,81 28,81" fill="#8a4f12" />

    <!-- BACK HINDLEG (Back-left) -->
    <polygon points="55,60 63,62 62,72 52,70" fill="#4a382c" />
    <polygon points="52,70 62,72 60,80 50,79" fill="#3d2b20" />
    <polygon points="50,79 60,80 62,83 48,83" fill="#b45d24" />

    <!-- EYE -->
    <polygon points="19,46 22,45 21,49 18,48" fill="#fcecd6" />

    <!-- CHEEK HIGHLIGHT -->
    <polygon points="16,50 19,49 18,52 15,51" fill="#9a3159" />
  </g>
</svg>
