<svg xmlns="http://www.w3.org/2000/svg" viewBox="0 0 100 100" width="100%" height="100%">
  <g id="rocket-lowpoly" transform="translate(0, 1) rotate(45, 50, 50)">
    <!-- LEFT WING W/ SHADED FACETS -->
    <polygon points="37,48 18,70 30,60" fill="#040e1a" />
    <polygon points="18,70 14,76 28,74" fill="#081a2e" />
    <polygon points="14,76 25,78 28,74" fill="#0d2745" />
    <polygon points="28,74 25,78 38,72" fill="#12355e" />
    <polygon points="30,60 18,70 28,74" fill="#091d33" />
    <polygon points="37,48 30,60 38,72" fill="#0b2440" />

    <!-- RIGHT WING W/ SHADED FACETS -->
    <polygon points="63,48 82,70 70,60" fill="#091e33" />
    <polygon points="82,70 86,76 72,74" fill="#0e2e4f" />
    <polygon points="86,76 75,78 72,74" fill="#143e6b" />
    <polygon points="72,74 75,78 62,72" fill="#1a508a" />
    <polygon points="70,60 82,70 72,74" fill="#0f3459" />
    <polygon points="63,48 70,60 62,72" fill="#134170" />

    <!-- NOSE CONE (Shaded Faceted Cone) -->
    <polygon points="50,8 45,20 50,22" fill="#1c3e5c" />
    <polygon points="50,8 50,22 55,20" fill="#2a5a85" />
    <polygon points="45,20 41,30 50,32" fill="#153047" />
    <polygon points="55,20 50,22 50,32" fill="#21486b" />
    <polygon points="55,20 50,32 59,30" fill="#306b9e" />
    <polygon points="41,30 37,40 46,42" fill="#102538" />
    <polygon points="41,30 46,42 50,32" fill="#143047" />
    <polygon points="59,30 50,32 54,42" fill="#245178" />
    <polygon points="59,30 54,42 63,40" fill="#387cb5" />

    <!-- NOSE CONE ACCENTS -->
    <polygon points="50,32 46,42 50,44" fill="#9b8cff" />
    <polygon points="50,32 50,44 54,42" fill="#5ee7ff" />

    <!-- FUSELAGE / BODY SECTIONS -->
    <!-- Row 1 (Y: 40 to 52) -->
    <polygon points="37,40 36,52 43,53" fill="#0d2133" />
    <polygon points="37,40 43,53 46,42" fill="#122c45" />
    <polygon points="46,42 43,53 50,54" fill="#9b8cff" />
    <polygon points="46,42 50,54 50,44" fill="#b5a8ff" />
    <polygon points="54,42 50,44 50,54" fill="#85ecff" />
    <polygon points="54,42 50,54 57,53" fill="#5ee7ff" />
    <polygon points="54,42 57,53 63,40" fill="#21486b" />
    <polygon points="63,40 57,53 64,52" fill="#285985" />

    <!-- Row 2 (Y: 52 to 62) -->
    <polygon points="36,52 37,62 44,63" fill="#10283d" />
    <polygon points="36,52 44,63 43,53" fill="#163552" />
    <polygon points="43,53 44,63 50,64" fill="#7160db" />
    <polygon points="43,53 50,64 50,54" fill="#9b8cff" />
    <polygon points="57,53 50,54 50,64" fill="#5ee7ff" />
    <polygon points="57,53 50,64 56,63" fill="#32c6e3" />
    <polygon points="57,53 56,63 64,52" fill="#245178" />
    <polygon points="64,52 56,63 63,62" fill="#306b9e" />

    <!-- Row 3 (Y: 62 to 72) -->
    <polygon points="37,62 38,72 44,73" fill="#0b1b29" />
    <polygon points="37,62 44,73 44,63" fill="#0f2538" />
    <polygon points="44,63 44,73 50,74" fill="#9b8cff" />
    <polygon points="44,63 50,74 50,64" fill="#aaa0f5" />
    <polygon points="56,63 50,64 50,74" fill="#88f2ff" />
    <polygon points="56,63 50,74 56,73" fill="#5ee7ff" />
    <polygon points="56,63 56,73 63,62" fill="#1b3d5c" />
    <polygon points="63,62 56,73 62,72" fill="#24517a" />

    <!-- PORT WINDOW -->
    <!-- Window Frame -->
    <polygon points="46,47 50,44 54,47 54,53 50,56 46,53" fill="#051221" stroke="#7cffc4" stroke-width="0.75" />
    <!-- Window Glass -->
    <polygon points="48,48 50,46 52,48 52,52 50,54 48,52" fill="#e6ffff" />
    <!-- Reflection -->
    <polygon points="48,48 50,46 51,49 49,51" fill="#ffffff" opacity="0.6" />

    <!-- ENGINE BELLS -->
    <polygon points="38,72 35,80 41,81" fill="#051221" />
    <polygon points="38,72 41,81 44,73" fill="#092038" />
    
    <polygon points="44,73 43,81 50,82" fill="#0d2642" />
    <polygon points="44,73 50,82 50,74" fill="#123459" />
    <polygon points="56,73 50,74 50,82" fill="#194575" />
    <polygon points="56,73 50,82 57,81" fill="#123459" />

    <polygon points="56,73 59,81 62,72" fill="#123459" />
    <polygon points="62,72 59,81 65,80" fill="#18487a" />

    <!-- DETAILED THRUSTER FLAMES -->
    <polygon points="35,80 26,94 41,87" fill="#9b8cff" opacity="0.75" />
    <polygon points="65,80 59,87 74,94" fill="#5ee7ff" opacity="0.75" />
    <polygon points="41,81 37,97 46,90" fill="#7cffc4" />
    <polygon points="46,90 50,98 54,90" fill="#ffffff" />
    <polygon points="59,81 54,90 63,97" fill="#85ecff" />
    <polygon points="43,81 46,90 50,82" fill="#c2baff" />
    <polygon points="57,81 50,82 54,90" fill="#c9ffeb" />
  </g>
</svg>
