<svg xmlns="http://www.w3.org/2000/svg" viewBox="0 0 100 100" width="100%" height="100%">
  <g id="rocket-lowpoly" transform="translate(0, 1) rotate(45, 50, 50)">
    <!-- LEFT WING W/ SHADED FACETS -->
    <polygon points="37,48 18,70 30,60" fill="#261a12" />
    <polygon points="18,70 14,76 28,74" fill="#302117" />
    <polygon points="14,76 25,78 28,74" fill="#3c2a1e" />
    <polygon points="28,74 25,78 38,72" fill="#4a3425" />
    <polygon points="30,60 18,70 28,74" fill="#2c1e15" />
    <polygon points="37,48 30,60 38,72" fill="#35251a" />

    <!-- RIGHT WING W/ SHADED FACETS -->
    <polygon points="63,48 82,70 70,60" fill="#32241b" />
    <polygon points="82,70 86,76 72,74" fill="#423024" />
    <polygon points="86,76 75,78 72,74" fill="#523c2d" />
    <polygon points="72,74 75,78 62,72" fill="#634936" />
    <polygon points="70,60 82,70 72,74" fill="#3a2a1f" />
    <polygon points="63,48 70,60 62,72" fill="#4b3627" />

    <!-- NOSE CONE (Shaded Faceted Cone) -->
    <polygon points="50,8 45,20 50,22" fill="#5a473b" />
    <polygon points="50,8 50,22 55,20" fill="#7a6352" />
    <polygon points="45,20 41,30 50,32" fill="#4a392f" />
    <polygon points="55,20 50,22 50,32" fill="#675345" />
    <polygon points="55,20 50,32 59,30" fill="#8c725e" />
    <polygon points="41,30 37,40 46,42" fill="#3b2d25" />
    <polygon points="41,30 46,42 50,32" fill="#48372d" />
    <polygon points="59,30 50,32 54,42" fill="#6e584a" />
    <polygon points="59,30 54,42 63,40" fill="#9e826b" />

    <!-- NOSE CONE ACCENTS -->
    <polygon points="50,32 46,42 50,44" fill="#8a4f12" />
    <polygon points="50,32 50,44 54,42" fill="#b45d24" />

    <!-- FUSELAGE / BODY SECTIONS -->
    <!-- Row 1 (Y: 40 to 52) -->
    <polygon points="37,40 36,52 43,53" fill="#33251e" />
    <polygon points="37,40 43,53 46,42" fill="#402f26" />
    <polygon points="46,42 43,53 50,54" fill="#8a4f12" />
    <polygon points="46,42 50,54 50,44" fill="#a65e15" />
    <polygon points="54,42 50,44 50,54" fill="#d16b2a" />
    <polygon points="54,42 50,54 57,53" fill="#b45d24" />
    <polygon points="54,42 57,53 63,40" fill="#6a5446" />
    <polygon points="63,40 57,53 64,52" fill="#806655" />

    <!-- Row 2 (Y: 52 to 62) -->
    <polygon points="36,52 37,62 44,63" fill="#3d2d24" />
    <polygon points="36,52 44,63 43,53" fill="#4b372c" />
    <polygon points="43,53 44,63 50,64" fill="#703f0b" />
    <polygon points="43,53 50,64 50,54" fill="#8a4f12" />
    <polygon points="57,53 50,54 50,64" fill="#b45d24" />
    <polygon points="57,53 50,64 56,63" fill="#944a17" />
    <polygon points="57,53 56,63 64,52" fill="#725b4b" />
    <polygon points="64,52 56,63 63,62" fill="#8c705d" />

    <!-- Row 3 (Y: 62 to 72) -->
    <polygon points="37,62 38,72 44,73" fill="#30221a" />
    <polygon points="37,62 44,73 44,63" fill="#3c2b21" />
    <polygon points="44,63 44,73 50,74" fill="#8a4f12" />
    <polygon points="44,63 50,74 50,64" fill="#ad6418" />
    <polygon points="56,63 50,64 50,74" fill="#cf6b29" />
    <polygon points="56,63 50,74 56,73" fill="#b45d24" />
    <polygon points="56,63 56,73 63,62" fill="#5e4b3e" />
    <polygon points="63,62 56,73 62,72" fill="#755e4e" />

    <!-- PORT WINDOW -->
    <!-- Window Frame -->
    <polygon points="46,47 50,44 54,47 54,53 50,56 46,53" fill="#231710" stroke="#9a3159" stroke-width="0.75" />
    <!-- Window Glass -->
    <polygon points="48,48 50,46 52,48 52,52 50,54 48,52" fill="#fcecd6" />
    <!-- Reflection -->
    <polygon points="48,48 50,46 51,49 49,51" fill="#fffaf2" opacity="0.6" />

    <!-- ENGINE BELLS -->
    <polygon points="38,72 35,80 41,81" fill="#231811" />
    <polygon points="38,72 41,81 44,73" fill="#302117" />
    
    <polygon points="44,73 43,81 50,82" fill="#34251a" />
    <polygon points="44,73 50,82 50,74" fill="#422f21" />
    <polygon points="56,73 50,74 50,82" fill="#503a29" />
    <polygon points="56,73 50,82 57,81" fill="#3e2d20" />

    <polygon points="56,73 59,81 62,72" fill="#422f21" />
    <polygon points="62,72 59,81 65,80" fill="#523b29" />

    <!-- DETAILED THRUSTER FLAMES -->
    <polygon points="35,80 26,94 41,87" fill="#9a3159" opacity="0.75" />
    <polygon points="65,80 59,87 74,94" fill="#8a4f12" opacity="0.75" />
    <polygon points="41,81 37,97 46,90" fill="#b45d24" />
    <polygon points="46,90 50,98 54,90" fill="#fff5e6" />
    <polygon points="59,81 54,90 63,97" fill="#d16b2a" />
    <polygon points="43,81 46,90 50,82" fill="#e8a75e" />
    <polygon points="57,81 50,82 54,90" fill="#ffd49f" />
  </g>
</svg>
