<svg xmlns="http://www.w3.org/2000/svg" viewBox="0 0 100 100" width="100%" height="100%">
  <g id="rocket-lowpoly" transform="translate(0, 1) rotate(45, 50, 50)">
    <!-- LEFT WING W/ SHADED FACETS -->
    <polygon points="37,48 18,70 30,60" fill="#1b232a" />
    <polygon points="18,70 14,76 28,74" fill="#242e37" />
    <polygon points="14,76 25,78 28,74" fill="#2f3b47" />
    <polygon points="28,74 25,78 38,72" fill="#3b4b5a" />
    <polygon points="30,60 18,70 28,74" fill="#202a32" />
    <polygon points="37,48 30,60 38,72" fill="#2a3642" />

    <!-- RIGHT WING W/ SHADED FACETS -->
    <polygon points="63,48 82,70 70,60" fill="#26313b" />
    <polygon points="82,70 86,76 72,74" fill="#32404d" />
    <polygon points="86,76 75,78 72,74" fill="#3f5161" />
    <polygon points="72,74 75,78 62,72" fill="#4d6275" />
    <polygon points="70,60 82,70 72,74" fill="#2e3b47" />
    <polygon points="63,48 70,60 62,72" fill="#394857" />

    <!-- NOSE CONE (Shaded Faceted Cone) -->
    <polygon points="50,8 45,20 50,22" fill="#4d5f6e" />
    <polygon points="50,8 50,22 55,20" fill="#6f8394" />
    <polygon points="45,20 41,30 50,32" fill="#3f4f5c" />
    <polygon points="55,20 50,22 50,32" fill="#5c6e7f" />
    <polygon points="55,20 50,32 59,30" fill="#7f93a6" />
    <polygon points="41,30 37,40 46,42" fill="#313f4a" />
    <polygon points="41,30 46,42 50,32" fill="#3e4d5b" />
    <polygon points="59,30 50,32 54,42" fill="#627585" />
    <polygon points="59,30 54,42 63,40" fill="#90a4b5" />

    <!-- NOSE CONE ACCENTS -->
    <polygon points="50,32 46,42 50,44" fill="#4f6475" />
    <polygon points="50,32 50,44 54,42" fill="#8a949d" />

    <!-- FUSELAGE / BODY SECTIONS -->
    <!-- Row 1 (Y: 40 to 52) -->
    <polygon points="37,40 36,52 43,53" fill="#27323b" />
    <polygon points="37,40 43,53 46,42" fill="#323f4c" />
    <polygon points="46,42 43,53 50,54" fill="#4f6475" />
    <polygon points="46,42 50,54 50,44" fill="#637d92" />
    <polygon points="54,42 50,44 50,54" fill="#a2adb7" />
    <polygon points="54,42 50,54 57,53" fill="#8a949d" />
    <polygon points="54,42 57,53 63,40" fill="#5c6e7f" />
    <polygon points="63,40 57,53 64,52" fill="#728495" />

    <!-- Row 2 (Y: 52 to 62) -->
    <polygon points="36,52 37,62 44,63" fill="#2e3b47" />
    <polygon points="36,52 44,63 43,53" fill="#3b4b5a" />
    <polygon points="43,53 44,63 50,64" fill="#3e4e5c" />
    <polygon points="43,53 50,64 50,54" fill="#4f6475" />
    <polygon points="57,53 50,54 50,64" fill="#8a949d" />
    <polygon points="57,53 50,64 56,63" fill="#737c85" />
    <polygon points="57,53 56,63 64,52" fill="#627585" />
    <polygon points="64,52 56,63 63,62" fill="#7f93a6" />

    <!-- Row 3 (Y: 62 to 72) -->
    <polygon points="37,62 38,72 44,73" fill="#212a33" />
    <polygon points="37,62 44,73 44,63" fill="#2a3540" />
    <polygon points="44,63 44,73 50,74" fill="#4f6475" />
    <polygon points="44,63 50,74 50,64" fill="#6b8091" />
    <polygon points="56,63 50,64 50,74" fill="#a0adb8" />
    <polygon points="56,63 50,74 56,73" fill="#8a949d" />
    <polygon points="56,63 56,73 63,62" fill="#506170" />
    <polygon points="63,62 56,73 62,72" fill="#63778a" />

    <!-- PORT WINDOW -->
    <!-- Window Frame -->
    <polygon points="46,47 50,44 54,47 54,53 50,56 46,53" fill="#1b232a" stroke="#4f6475" stroke-width="0.75" />
    <!-- Window Glass -->
    <polygon points="48,48 50,46 52,48 52,52 50,54 48,52" fill="#c8d6e5" />
    <!-- Reflection -->
    <polygon points="48,48 50,46 51,49 49,51" fill="#ffffff" opacity="0.7" />

    <!-- ENGINE BELLS -->
    <polygon points="38,72 35,80 41,81" fill="#1b232a" />
    <polygon points="38,72 41,81 44,73" fill="#27323c" />
    
    <polygon points="44,73 43,81 50,82" fill="#2a3540" />
    <polygon points="44,73 50,82 50,74" fill="#374554" />
    <polygon points="56,73 50,74 50,82" fill="#435466" />
    <polygon points="56,73 50,82 57,81" fill="#323f4d" />

    <polygon points="56,73 59,81 62,72" fill="#374554" />
    <polygon points="62,72 59,81 65,80" fill="#46586b" />

    <!-- DETAILED THRUSTER FLAMES (Cool blue/white steam plasma) -->
    <polygon points="35,80 26,94 41,87" fill="#4f6475" opacity="0.6" />
    <polygon points="65,80 59,87 74,94" fill="#8a949d" opacity="0.6" />
    <polygon points="41,81 37,97 46,90" fill="#6e8496" />
    <polygon points="46,90 50,98 54,90" fill="#ffffff" />
    <polygon points="59,81 54,90 63,97" fill="#aab7c4" />
    <polygon points="43,81 46,90 50,82" fill="#b9c8d6" />
    <polygon points="57,81 50,82 54,90" fill="#d9e5f0" />
  </g>
</svg>
